<?xml version="1.0" encoding="UTF-8"?>
<svg width="24px" height="24px" viewBox="0 0 24 24" version="1.1" xmlns="http://www.w3.org/2000/svg" xmlns:xlink="http://www.w3.org/1999/xlink">
    <title>Status</title>
    <g id="Status" stroke="none" stroke-width="1" fill="none" fill-rule="evenodd">
        <path d="M12,9 C12,7.0013347 14.9236179,3.86805772 19,4.5 C19.267389,4.63137673 19.5536662,4.75348531 19.8516836,4.87149693 L20.1098356,4.97176701 C20.1680967,4.99400554 20.2267137,5.01614794 20.2856362,5.03823057 C21.3812951,5.68295612 22.211384,6.57518997 22.6626143,7.69202418 C24.2142856,11.5325454 20.6983487,16.5746496 14.8095495,18.9538789 C12.1303694,20.0363379 9.4216116,20.381116 7.11862907,20.0737155 L7.06066891,20.0394238 L7.06066891,20.0394238 L7,20 C11.3095346,20.7182426 14.0041776,16.9933509 14.0041776,15.031349 C14.0041776,12 12,12 12,9 Z" id="Combined-Shape" stroke="white" fill="white"></path>
        <ellipse id="Oval-Copy" stroke="white" transform="translate(12.000000, 12.000000) rotate(68.000000) translate(-12.000000, -12.000000) " cx="12" cy="12" rx="7.5" ry="11.5"></ellipse>
    </g>
</svg>