<?xml version="1.0" encoding="UTF-8"?>
<svg width="24px" height="24px" viewBox="0 0 24 24" version="1.1" xmlns="http://www.w3.org/2000/svg" xmlns:xlink="http://www.w3.org/1999/xlink">
    <title>Status</title>
    <g id="Status" stroke="none" stroke-width="1" fill="none" fill-rule="evenodd">
        <path d="M17.8171909,4.62183609 C19.9205978,5.11542792 21.5255963,6.2125395 22.1990224,7.87932747 C22.9180365,9.65894978 22.4250238,11.7078913 21.1161258,13.5849443 C19.7427343,15.5544856 17.4662595,17.341231 14.6222462,18.490287 C13.3236626,19.0149488 12.017964,19.361573 10.757902,19.5394111 L10.503,19.571 L10.6127096,19.5349377 C10.8856204,19.4355366 11.1436766,19.3209387 11.3854681,19.1911366 L11.6217858,19.0562662 C12.9697148,18.2389586 13.7866787,16.9154451 13.7866787,15.031349 C13.7866787,13.5701568 13.3651779,12.7526757 12.8894308,12.0139386 L12.6971094,11.7213042 C12.2435007,11.0387745 11.7825011,10.3603384 11.7825011,9 C11.7825011,7.86448206 12.4861895,6.8179768 13.543373,6.03464291 C14.6622595,5.2055895 16.1875217,4.66691798 17.8171909,4.62183609 Z" id="Combined-Shape" stroke="white" fill="white"></path>
        <ellipse id="Oval-Copy" stroke="white" transform="translate(12.000000, 12.000000) rotate(68.000000) translate(-12.000000, -12.000000) " cx="12" cy="12" rx="7.5" ry="11.5"></ellipse>
    </g>
</svg>